<svg width="16.995605" height="12.311646" viewBox="0 0 16.9956 12.3116" fill="none" xmlns="http://www.w3.org/2000/svg" xmlns:xlink="http://www.w3.org/1999/xlink">
	<desc>
			Created with Pixso.
	</desc>
	<defs/>
	<path id="Vector" d="M16.8477 1.56384L6.24805 12.1638C6.15381 12.2585 6.02637 12.3116 5.89307 12.3116C5.75977 12.3116 5.63184 12.2585 5.53809 12.1638L0.147949 6.7738C0.0532227 6.68005 0 6.55225 0 6.41882C0 6.28552 0.0532227 6.15771 0.147949 6.06384L0.847656 5.36377C0.941895 5.26917 1.06934 5.21594 1.20312 5.21594C1.33643 5.21594 1.46387 5.26917 1.55811 5.36377L5.8877 9.69385L15.438 0.143799C15.6357 -0.0479736 15.9502 -0.0479736 16.1479 0.143799L16.8477 0.853882C16.9424 0.947754 16.9956 1.07556 16.9956 1.20886C16.9956 1.34216 16.9424 1.46997 16.8477 1.56384Z" fill="#FFFFFF" fill-opacity="1.000000" fill-rule="nonzero"/>
</svg>
