<svg width="18.000000" height="20.000061" viewBox="0 0 18 20.0001" fill="none" xmlns="http://www.w3.org/2000/svg" xmlns:xlink="http://www.w3.org/1999/xlink">
	<desc>
			Created with Pixso.
	</desc>
	<defs/>
	<path id="Vector" d="M17.73 5.12L17.59 4.87C17.4094 4.56769 17.1547 4.31641 16.85 4.14001L10.14 0.27002C9.83618 0.09375 9.49127 0.000610352 9.14001 0L8.84998 0C8.49872 0.000610352 8.15381 0.09375 7.84998 0.27002L1.14001 4.15002C0.836975 4.32526 0.585266 4.57697 0.409973 4.88L0.27002 5.13C0.09375 5.43384 0.000610352 5.77875 0 6.13L0 13.88C0.000610352 14.2313 0.09375 14.5762 0.27002 14.88L0.409973 15.13C0.589783 15.4295 0.840515 15.6802 1.14001 15.86L7.85999 19.73C8.16229 19.9099 8.50818 20.0033 8.85999 20L9.14001 20C9.49127 19.9994 9.83618 19.9063 10.14 19.73L16.85 15.85C17.156 15.6787 17.4087 15.426 17.58 15.12L17.73 14.87C17.9041 14.5653 17.9971 14.221 18 13.87L18 6.12C17.9994 5.76874 17.9063 5.42383 17.73 5.12ZM8.84998 2L9.14001 2L15 5.38L9 8.84003L3 5.38L8.84998 2ZM10 17.5L15.85 14.12L16 13.87L16 7.10999L10 10.58L10 17.5Z" fill="#FFFFFF" fill-opacity="1.000000" fill-rule="evenodd"/>
</svg>
