<svg width="20.000000" height="20.000000" viewBox="0 0 20 20" fill="none" xmlns="http://www.w3.org/2000/svg" xmlns:xlink="http://www.w3.org/1999/xlink">
	<desc>
			Created with Pixso.
	</desc>
	<defs/>
	<path id="icon" d="M2 14C2 13.8258 2.01172 13.6517 2.03516 13.479C0.801758 12.786 0 11.465 0 10C0 8.53503 0.801758 7.21399 2.03516 6.521C2.01221 6.34705 2 6.17297 2 6C2 3.62195 4.13818 1.71204 6.521 2.03601C7.21387 0.802002 8.53418 0 10 0C11.4658 0 12.7861 0.802002 13.479 2.03601C15.8569 1.71204 18 3.62195 18 6C18 6.17297 17.9878 6.34705 17.9648 6.521C19.1982 7.21399 20 8.53503 20 10C20 11.465 19.1982 12.786 17.9648 13.479C17.9878 13.653 18 13.827 18 14C18 16.3781 15.8569 18.2841 13.479 17.964C12.7861 19.198 11.4658 20 10 20C8.53418 20 7.21387 19.198 6.521 17.964C4.13818 18.2841 2 16.3781 2 14ZM4.5791 7.78296L3.47705 8.07605C3.0542 8.19031 2.68066 8.44067 2.41455 8.78845C2.14795 9.13623 2.00391 9.56201 2.00391 10C2.00391 10.438 2.14795 10.8638 2.41455 11.2115C2.68066 11.5593 3.0542 11.8097 3.47705 11.924L4.5791 12.217L4.14502 13.27C4.0498 13.5 4 13.7531 4 14C4 15.103 4.89697 16 6 16C6.25049 15.9994 6.49854 15.9501 6.72998 15.855L7.78418 15.421L8.07715 16.5229C8.18994 16.9468 8.43945 17.3215 8.78711 17.5887C9.13525 17.8561 9.56152 18.001 10 18.001C10.4385 18.001 10.8647 17.8561 11.2129 17.5887C11.5605 17.3215 11.8101 16.9468 11.9229 16.5229L12.2158 15.421L13.27 15.855C13.501 15.95 13.7529 16 14 16C15.103 16 16 15.103 16 14C16 13.7531 15.9502 13.5 15.855 13.27L15.4209 12.217L16.5229 11.924C16.9458 11.8097 17.3193 11.5593 17.5854 11.2115C17.8521 10.8638 17.9961 10.438 17.9961 10C17.9961 9.56201 17.8521 9.13623 17.5854 8.78845C17.3193 8.44067 16.9458 8.19031 16.5229 8.07605L15.4209 7.78296L15.855 6.72998C15.9502 6.5 16 6.24695 16 6C16 4.89697 15.103 4 14 4C13.7529 4 13.501 4.05005 13.27 4.14502L12.2158 4.57898L11.9229 3.47705C11.8101 3.05322 11.5605 2.67847 11.2129 2.41125C10.8647 2.14392 10.4385 1.99902 10 1.99902C9.56152 1.99902 9.13525 2.14392 8.78711 2.41125C8.43945 2.67847 8.18994 3.05322 8.07715 3.47705L7.78418 4.57898L6.72998 4.14502C6.49902 4.05005 6.24707 4 6 4C4.89697 4 4 4.89697 4 6C4.00049 6.25049 4.0498 6.49841 4.14502 6.72998L4.5791 7.78296ZM12.334 7.29004L13.7422 8.70996L8.99707 13.411L6.29297 10.707L7.70703 9.29297L9.00293 10.589L12.334 7.29004Z" fill="#FFFFFF" fill-opacity="1.000000" fill-rule="evenodd"/>
</svg>
