<svg width="20.000000" height="20.000000" viewBox="0 0 20 20" fill="none" xmlns="http://www.w3.org/2000/svg" xmlns:xlink="http://www.w3.org/1999/xlink">
	<desc>
			Created with Pixso.
	</desc>
	<defs/>
	<path id="icon" d="M0 10C0 4.48596 4.48584 0 10 0C15.5142 0 20 4.48596 20 10C20 15.514 15.5142 20 10 20C4.48584 20 0 15.514 0 10ZM2 10C2 14.411 5.58887 18 10 18C14.4111 18 18 14.411 18 10C18 5.58899 14.4111 2 10 2C5.58887 2 2 5.58899 2 10ZM11 7L11 5L9 5L9 7L11 7ZM11 15L11 9L9 9L9 15L11 15Z" fill="#E9FF66" fill-opacity="1.000000" fill-rule="evenodd"/>
</svg>
