<svg width="20.000000" height="19.000000" viewBox="0 0 20 19" fill="none" xmlns="http://www.w3.org/2000/svg" xmlns:xlink="http://www.w3.org/1999/xlink">
	<desc>
			Created with Pixso.
	</desc>
	<defs/>
	<path id="icon" d="M18 6L12.3882 6L13.5112 2.63306C13.7129 2.0249 13.6108 1.35107 13.2358 0.831055C12.8608 0.311035 12.2529 0 11.6118 0L10 0C9.70312 0 9.42188 0.13208 9.23096 0.360107L4.53076 6L2 6C0.896973 6 0 6.89697 0 8L0 17C0 18.103 0.896973 19 2 19L15.3071 19C15.7139 18.9985 16.1108 18.8738 16.4453 18.6421C16.7798 18.4104 17.0356 18.0825 17.1802 17.7019L19.937 10.3511C19.979 10.2388 20 10.1199 20 10L20 8C20 6.89697 19.103 6 18 6ZM2 8L4 8L4 17L2 17L2 8ZM18 9.81909L15.3071 17L6 17L6 7.36206L10.4678 2L11.6138 2L10.0518 6.68311C10.0015 6.83325 9.9873 6.99365 10.0107 7.15039C10.0342 7.30737 10.0952 7.4563 10.1875 7.58496C10.2803 7.71387 10.4023 7.8186 10.5435 7.89087C10.6851 7.96289 10.8413 8.00049 11 8L18 8L18 9.81909Z" fill="#FFFFFF" fill-opacity="1.000000" fill-rule="nonzero"/>
</svg>
