<svg width="18.666504" height="18.666748" viewBox="0 0 18.6665 18.6667" fill="none" xmlns="http://www.w3.org/2000/svg" xmlns:xlink="http://www.w3.org/1999/xlink">
	<desc>
			Created with Pixso.
	</desc>
	<defs/>
	<path id="Vector" d="M18.6665 9L18.6665 9.66675C18.6665 10.0349 18.3682 10.3333 18 10.3333L10.3335 10.3333L10.3335 18C10.3335 18.3682 10.0347 18.6667 9.6665 18.6667L9 18.6667C8.63184 18.6667 8.3335 18.3682 8.3335 18L8.3335 10.3333L0.666504 10.3333C0.29834 10.3333 0 10.0349 0 9.66675L0 9C0 8.63184 0.29834 8.33325 0.666504 8.33325L8.3335 8.33325L8.3335 0.666748C8.3335 0.298584 8.63184 0 9 0L9.6665 0C10.0347 0 10.3335 0.298584 10.3335 0.666748L10.3335 8.33325L18 8.33325C18.3682 8.33325 18.6665 8.63184 18.6665 9Z" fill="#FFFFFF" fill-opacity="1.000000" fill-rule="nonzero"/>
</svg>
