<svg width="19.999939" height="18.888916" viewBox="0 0 19.9999 18.8889" fill="none" xmlns="http://www.w3.org/2000/svg" xmlns:xlink="http://www.w3.org/1999/xlink">
	<desc>
			Created with Pixso.
	</desc>
	<defs/>
	<path id="Vector" d="M9.07086 0.612305C9.41461 -0.204102 10.5854 -0.204102 10.9291 0.612305L12.9579 5.43115C13.1029 5.77539 13.4305 6.0105 13.8066 6.04028L19.0727 6.45752C19.9649 6.52808 20.3267 7.62817 19.6469 8.20337L15.6348 11.5986C15.3482 11.8413 15.223 12.2217 15.3105 12.5842L16.5363 17.6609C16.744 18.521 15.7969 19.2009 15.033 18.74L10.5245 16.0195C10.2025 15.8252 9.79749 15.8252 9.47546 16.0195L4.96698 18.74C4.20312 19.2009 3.25598 18.521 3.46362 17.6609L4.68939 12.5842C4.77698 12.2217 4.65179 11.8413 4.36523 11.5986L0.353088 8.20337C-0.326721 7.62817 0.0350952 6.52808 0.927307 6.45752L6.19336 6.04028C6.56952 6.0105 6.89716 5.77539 7.04205 5.43115L9.07086 0.612305Z" fill="#FFFFFF" fill-opacity="1.000000" fill-rule="nonzero"/>
</svg>
