<svg width="50.000000" height="50.000000" viewBox="0 0 50 50" fill="none" xmlns="http://www.w3.org/2000/svg" xmlns:xlink="http://www.w3.org/1999/xlink">
	<desc>
			Created with Pixso.
	</desc>
	<defs>
		<clipPath id="clip3_32138">
			<rect id="KakaoTalk_logo 1" width="50.000000" height="50.000000" fill="white" fill-opacity="0"/>
		</clipPath>
	</defs>
	<rect id="KakaoTalk_logo 1" width="50.000000" height="50.000000" fill="#FFFFFF" fill-opacity="0"/>
	<g clip-path="url(#clip3_32138)">
		<path id="Vector" d="M50 46.0938C50 48.2512 48.2512 50 46.0938 50L3.90625 50C1.74878 50 0 48.2512 0 46.0938L0 3.90625C0 1.74878 1.74878 0 3.90625 0L46.0938 0C48.2512 0 50 1.74878 50 3.90625L50 46.0938Z" fill="#FFE812" fill-opacity="1.000000" fill-rule="nonzero"/>
		<path id="Vector" d="M25 7.03125C13.7816 7.03125 4.6875 14.2018 4.6875 23.0469C4.6875 28.7654 8.4895 33.7832 14.2086 36.6166C13.8975 37.6897 12.2092 43.5198 12.142 43.9778C12.142 43.9778 12.1016 44.3219 12.3245 44.4531C12.5472 44.5844 12.8093 44.4824 12.8093 44.4824C13.4485 44.3932 20.2201 39.6365 21.3922 38.8105C22.5631 38.9763 23.7688 39.0625 25 39.0625C36.2184 39.0625 45.3125 31.8922 45.3125 23.0469C45.3125 14.2018 36.2184 7.03125 25 7.03125Z" fill="#000000" fill-opacity="1.000000" fill-rule="nonzero"/>
		<path id="Vector" d="M13.7695 28.6377C13.1233 28.6377 12.5977 28.1357 12.5977 27.5186L12.5977 20.5566L10.7692 20.5566C10.135 20.5566 9.61914 20.0417 9.61914 19.4092C9.61914 18.7766 10.1351 18.2617 10.7692 18.2617L16.7699 18.2617C17.4041 18.2617 17.9199 18.7766 17.9199 19.4092C17.9199 20.0417 17.4039 20.5566 16.7699 20.5566L14.9414 20.5566L14.9414 27.5186C14.9414 28.1357 14.4158 28.6377 13.7695 28.6377ZM24.0453 28.6224C23.5566 28.6224 23.1829 28.4241 23.0701 28.1049L22.4899 26.5857L18.9164 26.5856L18.3357 28.1057C18.2234 28.4242 17.8499 28.6224 17.3611 28.6224C17.1041 28.6227 16.85 28.5675 16.6162 28.4607C16.2932 28.3118 15.9827 27.902 16.3385 26.7966L19.1416 19.4186C19.3391 18.8574 19.9388 18.2793 20.7021 18.262C21.4675 18.2791 22.0674 18.8574 22.2653 19.4197L25.0671 26.7946C25.4238 27.9023 25.1133 28.3123 24.7903 28.4609C24.5564 28.5676 24.3024 28.6227 24.0453 28.6224ZM21.8737 24.51L20.7031 21.1848L19.5326 24.51L21.8737 24.51ZM26.9531 28.4668C26.3337 28.4668 25.8301 27.9847 25.8301 27.3926L25.8301 19.4336C25.8301 18.7874 26.3668 18.2617 27.0264 18.2617C27.6859 18.2617 28.2227 18.7874 28.2227 19.4336L28.2227 26.3184L30.7129 26.3184C31.3323 26.3184 31.8359 26.8004 31.8359 27.3926C31.8359 27.9847 31.3323 28.4668 30.7129 28.4668L26.9531 28.4668ZM33.4636 28.6224C32.8174 28.6224 32.2917 28.0969 32.2917 27.4506L32.2917 19.4336C32.2917 18.7874 32.8174 18.2617 33.4636 18.2617C34.11 18.2617 34.6355 18.7874 34.6355 19.4336L34.6355 21.9524L37.905 18.6829C38.0732 18.5146 38.3043 18.4221 38.5551 18.4221C38.8477 18.4221 39.1414 18.5482 39.3616 18.7682C39.5668 18.9733 39.6892 19.2371 39.7061 19.5111C39.723 19.7875 39.6311 20.0408 39.4475 20.2246L36.777 22.8948L39.6615 26.7162C39.7546 26.8389 39.8225 26.9786 39.8611 27.1277C39.8998 27.2767 39.9084 27.432 39.8865 27.5844C39.8656 27.7368 39.8147 27.8837 39.7367 28.0164C39.6586 28.149 39.5549 28.2649 39.4319 28.3572C39.2292 28.5112 38.9814 28.5944 38.7269 28.5938C38.5454 28.5946 38.3661 28.5529 38.2036 28.472C38.041 28.3911 37.8997 28.2733 37.7908 28.1279L35.0426 24.4866L34.636 24.8932L34.636 27.45C34.6356 27.7609 34.512 28.0588 34.2922 28.2786C34.0724 28.4984 33.7745 28.6221 33.4636 28.6224Z" fill="#FFE812" fill-opacity="1.000000" fill-rule="nonzero"/>
	</g>
</svg>
