<svg width="134.979980" height="22.500000" viewBox="0 0 134.98 22.5" fill="none" xmlns="http://www.w3.org/2000/svg" xmlns:xlink="http://www.w3.org/1999/xlink">
	<desc>
			Created with Pixso.
	</desc>
	<defs/>
	<path id="Logo" d="M24.5605 22.5L36.0703 0L25.4014 0L21.3125 7.88196L21.0962 7.88232L21.0962 0.00012207L13.8022 0.00012207L9.86084 7.93176L9.64453 7.93262L9.64453 0.00012207L0 0.00012207L0 9.64465L8.58154 9.64465C5.4043 12.9849 0 13.3041 0 13.3041L0 22.5C8.44775 21.7294 14.377 18.3335 18.3506 13.175L18.5669 13.175L13.75 22.5L24.5605 22.5ZM98.833 20.0165L101.939 20.0165L101.939 2.1875L98.833 2.1875L98.833 20.0165ZM81.709 19.8345C82.3843 20.1151 83.0708 20.2555 83.7686 20.2555C84.9214 20.2555 85.9531 19.9749 86.8633 19.4135C87.7734 18.8522 88.479 18.0786 88.9795 17.0924C89.48 16.0989 89.7305 14.9723 89.7305 13.7131C89.7305 12.4541 89.4727 11.3278 88.957 10.334C88.4409 9.34045 87.7241 8.57043 86.8062 8.02441C85.8887 7.4707 84.8457 7.19763 83.6772 7.2052C82.9341 7.2052 82.2212 7.34924 81.5386 7.63757C80.856 7.92578 80.2871 8.33533 79.832 8.86633C79.7969 8.90674 79.7627 8.94751 79.7295 8.98877L79.7295 2.19897L76.6118 2.19897L76.6118 20.0166L79.7065 20.0166L79.7002 18.3521C79.7803 18.4502 79.8662 18.546 79.957 18.6398C80.4497 19.1481 81.0342 19.5461 81.709 19.8345ZM92.7119 4.77026C92.249 5.5592 92.0176 6.46179 92.0176 7.47815L90.0151 7.47815L90.0151 10.1064L92.0176 10.1064L92.0176 20.0166L95.124 20.0166L95.124 10.1064L97.5361 10.1064L97.5361 7.47815L95.126 7.47815C95.1401 6.99939 95.2383 6.57837 95.4194 6.21521C95.6167 5.8208 95.8975 5.52124 96.2617 5.31641C96.6333 5.104 97.0806 4.99402 97.604 4.98645L97.604 2.22168C96.4814 2.23682 95.499 2.46814 94.6572 2.91577C93.8232 3.35571 93.1743 3.97388 92.7119 4.77026ZM44.1201 3.26843L40.5703 3.26843L45.4966 20.0166L48.5913 20.0166L52.0112 8.91455L55.7368 20.0166L58.7974 20.0166L63.5986 3.26843L60.3447 3.26843L57.2954 14.6327L53.6318 3.26843L50.6733 3.26843L47.2954 14.8655L44.1201 3.26843ZM106.433 19.459C107.434 20.0126 108.568 20.2894 109.835 20.2894C111.109 20.2894 112.25 20.0126 113.259 19.459C114.269 18.8976 115.05 18.124 115.604 17.1378C116.165 16.1442 116.449 15.0178 116.457 13.7585C116.449 12.4844 116.165 11.3503 115.604 10.3567C115.042 9.36304 114.257 8.58936 113.248 8.03564C112.247 7.48193 111.109 7.20508 109.835 7.20508C108.568 7.20508 107.434 7.48193 106.433 8.03564C105.439 8.58936 104.658 9.36682 104.089 10.368C103.528 11.3617 103.247 12.4919 103.247 13.7585C103.247 15.0178 103.528 16.1442 104.089 17.1378C104.658 18.124 105.439 18.8976 106.433 19.459ZM65.4961 19.4932C66.4897 20.0468 67.605 20.3199 68.8413 20.3123C69.9033 20.3199 70.8818 20.134 71.7769 19.7548C72.6719 19.3755 73.415 18.8484 74.0068 18.1732C74.5986 17.4906 74.9927 16.7131 75.1899 15.8409L71.936 15.8409C71.8145 16.1974 71.606 16.5159 71.3101 16.7965C71.022 17.0773 70.6694 17.301 70.252 17.4679C69.835 17.6272 69.3833 17.7106 68.8979 17.7181C68.2607 17.7181 67.6846 17.574 67.1685 17.2858C66.6528 16.9976 66.251 16.5955 65.9629 16.0797C65.7051 15.6118 65.5625 15.0922 65.5352 14.521L75.2812 14.521C75.3125 14.2079 75.3281 13.9027 75.3281 13.6051C75.3281 12.5403 75.1265 11.5751 74.7236 10.7095C74.2153 9.59448 73.4453 8.73352 72.4136 8.12671C71.3896 7.5199 70.1953 7.21643 68.8296 7.21643C67.6162 7.21643 66.5166 7.49719 65.5303 8.05847C64.5439 8.61975 63.7627 9.401 63.1865 10.4022C62.6099 11.4036 62.3218 12.5222 62.3218 13.7587Q62.3218 15.4952 63.0166 16.8843Q63.0864 17.0243 63.1636 17.1606C63.7324 18.1543 64.5103 18.9318 65.4961 19.4932ZM119.813 7.47815L116.354 7.47815L120.098 20.0165L123.124 20.0165L125.586 12.0083L128.244 20.0165L131.225 20.0165L134.98 7.47815L131.851 7.47815L129.721 15.2825L127.367 7.47815L124.341 7.47815L121.999 15.4543L119.813 7.47815ZM65.5962 12.4161C65.6665 12.0504 65.7925 11.7091 65.9741 11.3921C66.2773 10.8688 66.687 10.4629 67.2026 10.1747C67.7188 9.88647 68.2915 9.74231 68.9209 9.74231C69.5127 9.74231 70.0435 9.86755 70.5137 10.1178C70.9839 10.3606 71.3555 10.7057 71.6289 11.1532C71.8672 11.5332 72.0098 11.9541 72.0566 12.4161L65.5962 12.4161ZM84.895 16.9559C84.3867 17.267 83.8066 17.4225 83.1543 17.4225C82.5093 17.4225 81.9175 17.2631 81.3794 16.9446C80.8403 16.6183 80.4121 16.1747 80.0933 15.6133C79.7822 15.0521 79.627 14.4148 79.627 13.7018C79.627 13.6851 79.6265 13.6682 79.6265 13.6515C79.6265 12.9589 79.7783 12.3385 80.082 11.7904C80.4009 11.2216 80.8291 10.7816 81.3677 10.4706C81.9062 10.152 82.502 9.99646 83.1543 10.0042C83.8066 9.99646 84.3867 10.1482 84.895 10.4592C85.4106 10.7626 85.8052 11.1987 86.0781 11.7677C86.3589 12.329 86.499 12.9738 86.499 13.7018C86.499 14.4301 86.3589 15.0748 86.0781 15.6361C85.8052 16.1974 85.4106 16.6373 84.895 16.9559ZM111.61 16.9786C111.094 17.282 110.502 17.4337 109.835 17.4337C109.175 17.4337 108.591 17.282 108.083 16.9786C107.582 16.6676 107.188 16.2352 106.899 15.6815C106.619 15.1202 106.479 14.4792 106.479 13.7585C106.478 13.7396 106.478 13.7207 106.478 13.7019C106.478 12.9969 106.615 12.3711 106.888 11.8245C107.168 11.2632 107.563 10.8308 108.071 10.5273C108.587 10.2164 109.175 10.0609 109.835 10.0609C110.502 10.0609 111.094 10.2164 111.61 10.5273C112.125 10.8308 112.524 11.2632 112.805 11.8245C113.085 12.3857 113.225 13.0305 113.225 13.7585C113.225 14.4792 113.085 15.1202 112.805 15.6815C112.524 16.2352 112.125 16.6676 111.61 16.9786Z" fill="#FFFFFF" fill-opacity="1.000000" fill-rule="evenodd"/>
</svg>
