<svg width="33" height="33" viewBox="0 0 33 33" fill="none" xmlns="http://www.w3.org/2000/svg">
<path d="M25.5075 16.2681V16.9347C25.5075 17.3029 25.2091 17.6014 24.8409 17.6014H17.1742V25.2681C17.1742 25.6362 16.8757 25.9347 16.5075 25.9347H15.8409C15.4727 25.9347 15.1742 25.6362 15.1742 25.2681V17.6014H7.50749C7.1393 17.6014 6.84082 17.3029 6.84082 16.9347V16.2681C6.84082 15.8999 7.1393 15.6014 7.50749 15.6014H15.1742V7.93473C15.1742 7.56654 15.4727 7.26807 15.8409 7.26807H16.5075C16.8757 7.26807 17.1742 7.56654 17.1742 7.93473V15.6014H24.8409C25.2091 15.6014 25.5075 15.8999 25.5075 16.2681Z" fill="white"/>
</svg>
